# xmcd
#
# Track frame offsets: 
#        150
#        12448
#        23921
#        37358
#        50020
#        62850
#        74949
#        84215
#        103773
#        113405
#        127827
#        139682
#        150450
#        166244
#
# Disc length: 2381 seconds
#
# Revision: 0
# Processed by: cddbd v1.5.2PL0 Copyright (c) Steve Scherf et al.
# Submitted via: ExactAudioCopyFreeDBPlugin 1.0
#
DISCID=bd094b0e
DTITLE=Kevin Kooyman - Kevin Kooyman
DYEAR=1900
DGENRE=Country
TTITLE0=King OF The Road
TTITLE1=Poor Little Fool
TTITLE2=Rube Don't Take Your Love To Town
TTITLE3=Skip A Rope
TTITLE4=Amarillo By Morning
TTITLE5=Ring Of Fire
TTITLE6=Rawhide
TTITLE7=Rainy Night In Georgia
TTITLE8=Mama Tried
TTITLE9=500 Miles Away From Home
TTITLE10=I've Got A Winner In you
TTITLE11=Travelin' Man
TTITLE12=I'm Sorry
TTITLE13=Bummin' Around
EXTD=
EXTT0=
EXTT1=
EXTT2=
EXTT3=
EXTT4=
EXTT5=
EXTT6=
EXTT7=
EXTT8=
EXTT9=
EXTT10=
EXTT11=
EXTT12=
EXTT13=
PLAYORDER=
